<?xml version="1.0" standalone="no"?><!DOCTYPE svg PUBLIC "-//W3C//DTD SVG 1.1//EN" "http://www.w3.org/Graphics/SVG/1.1/DTD/svg11.dtd"><svg t="1494417032102" class="icon" style="" viewBox="0 0 1025 1024" version="1.1" xmlns="http://www.w3.org/2000/svg" p-id="2093" xmlns:xlink="http://www.w3.org/1999/xlink" width="200.1953125" height="200"><defs><style type="text/css"></style></defs><path d="M332.032 954.496c-44.352 0-259.136 0-259.136 0C32.768 954.496 0 920.896 0 879.616L0 74.88C0 33.6 32.768 0 72.896 0l759.36 0c40.128 0 72.832 33.6 72.832 74.88 0 0 0 239.232 0 273.856 0 34.56-35.392 31.424-35.392 31.424s-37.44 2.048-37.44-33.664c0-64.832 0-203.392 0-234.88 0-41.344-47.424-36.864-47.424-36.864L112.768 72.704c0 0-39.808-4.16-39.808 40.064 0 38.592 0 592.128 0 733.952 0 20.928 10.56 32.96 27.328 33.152 61.056 0.576 205.568 1.792 234.048 1.792 36.416 0 36.928 35.392 36.928 35.392S376.448 954.496 332.032 954.496L332.032 954.496zM177.856 212.736c0-19.968 16.448-36.352 36.416-36.352l439.936 0c20.096 0 36.48 16.384 36.48 36.352l0 0c0 19.968-16.384 36.288-36.48 36.288L214.336 249.024C194.304 249.024 177.856 232.64 177.856 212.736L177.856 212.736 177.856 212.736zM177.856 389.12c0-19.968 16.448-36.288 36.416-36.288l340.608 0c20.032 0 36.416 16.32 36.416 36.288l0 0c0 19.968-16.448 36.288-36.416 36.288L214.336 425.408C194.304 425.408 177.856 409.024 177.856 389.12L177.856 389.12 177.856 389.12zM177.856 565.504c0-20.032 16.448-36.352 36.416-36.352l204.672 0c20.032 0 36.416 16.32 36.416 36.352l0 0c0 19.84-16.384 36.224-36.416 36.224L214.336 601.728C194.304 601.728 177.856 585.344 177.856 565.504L177.856 565.504 177.856 565.504zM177.856 741.824c0-19.968 16.448-36.288 36.416-36.288l204.672 0c20.032 0 36.416 16.384 36.416 36.288l0 0c0 19.968-16.384 36.288-36.416 36.288L214.336 778.112C194.304 778.112 177.856 761.728 177.856 741.824L177.856 741.824 177.856 741.824zM1021.824 916.352l-110.272-204.864c11.52-25.472 17.92-53.632 18.112-83.392 0.448-114.432-92.48-207.616-207.488-208.064C607.168 419.584 513.472 512.064 513.152 626.624c-0.128 30.4 6.656 58.944 18.304 84.992L419.136 913.92C415.488 920.384 416.064 928.512 420.48 934.4c4.544 6.016 12.032 8.64 19.392 7.04l95.04-21.44 32.256 90.368c2.56 6.976 9.024 11.904 16.384 12.608 0.448-0.064 0.896 0 1.408 0 6.912 0 13.44-3.776 16.832-9.856l98.176-180.48c6.784 0.768 13.568 2.112 20.544 2.24 6.528 0 12.544-1.344 18.944-1.984l99.008 181.12c3.328 6.272 9.6 9.984 16.576 9.92C855.424 1024 855.936 1024 856.512 1023.872c7.36-0.512 13.824-5.376 16.512-12.224l32.768-90.112 94.912 22.016c7.296 1.728 14.912-1.024 19.328-6.848C1024.64 930.88 1025.28 922.88 1021.824 916.352L1021.824 916.352zM584.256 891.328l-11.84-33.216c-1.664-4.608-6.336-7.232-11.2-6.144l-35.392 7.872 50.048-89.472c18.368 18.496 33.408 26.624 54.016 37.888L584.256 891.328 584.256 891.328zM720.64 759.104c-73.344-0.384-132.736-59.968-132.416-132.992 0.256-72.896 60.032-132.16 133.44-131.776 73.344 0.256 132.672 59.84 132.352 132.8C853.76 700.16 793.856 759.36 720.64 759.104L720.64 759.104zM883.648 866.496c-5.504-1.344-11.264 1.856-13.056 6.976l-14.08 39.36-53.632-98.176c24.256-13.184 41.856-22.784 63.744-44.544l58.752 105.728L883.648 866.496 883.648 866.496z" p-id="2094"></path></svg>