<?xml version="1.0" standalone="no"?><!DOCTYPE svg PUBLIC "-//W3C//DTD SVG 1.1//EN" "http://www.w3.org/Graphics/SVG/1.1/DTD/svg11.dtd"><svg t="1494417561748" class="icon" style="" viewBox="0 0 1024 1024" version="1.1" xmlns="http://www.w3.org/2000/svg" p-id="2792" xmlns:xlink="http://www.w3.org/1999/xlink" width="200" height="200"><defs><style type="text/css"></style></defs><path d="M276.674863 457.694199 59.557713 240.577049C49.566297 230.585633 49.508559 214.21023 59.117787 204.601002L204.601002 59.117787C214.534551 49.184238 230.238783 49.219447 240.577049 59.557713L457.694199 276.674863C467.691621 286.672285 483.900645 286.672285 493.898066 276.674863 503.895488 266.677442 503.895488 250.468418 493.898066 240.470996L276.780916 23.353846C246.484058-6.943012 198.361959-7.050905 168.397135 22.91392L22.91392 168.397135C-6.747525 198.05858-6.575486 246.851585 23.353846 276.780916L240.470996 493.898066C250.468418 503.895488 266.677441 503.895488 276.674863 493.898066 286.672285 483.900645 286.672285 467.691621 276.674863 457.694199L276.674863 457.694199Z" p-id="2793"></path><path d="M131.859394 312.87873 240.470996 204.267129C250.468418 194.269707 250.468418 178.060683 240.470996 168.063262 230.473574 158.06584 214.264551 158.06584 204.267129 168.063262L95.655527 276.674863C85.658106 286.672285 85.658106 302.881309 95.655527 312.87873 105.652949 322.876152 121.861973 322.876152 131.859394 312.87873L131.859394 312.87873Z" p-id="2794"></path><path d="M240.470996 421.490332 312.87873 349.082598C322.876152 339.085176 322.876152 322.876152 312.87873 312.87873 302.881309 302.881309 286.672285 302.881309 276.674863 312.87873L204.267129 385.286465C194.269707 395.283887 194.269707 411.49291 204.267129 421.490332 214.264551 431.487754 230.473574 431.487754 240.470996 421.490332L240.470996 421.490332Z" p-id="2795"></path><path d="M530.101934 783.529004 747.219085 1000.646155C777.148416 1030.575487 825.94142 1030.747525 855.602865 1001.08608L1001.08608 855.602865C1031.050905 825.638041 1030.943014 777.515943 1000.646155 747.219085L783.529004 530.101934C773.531581 520.104511 757.322558 520.104512 747.325137 530.101934 737.327715 540.099355 737.327714 556.308378 747.325137 566.305801L964.442288 783.422952C974.780552 793.761216 974.815762 809.465449 964.882213 819.398998L819.398998 964.882213C809.78977 974.491441 793.414365 974.433701 783.422952 964.442288L566.305801 747.325137C556.308378 737.327714 540.099355 737.327715 530.101934 747.325137 520.104512 757.322559 520.104511 773.531581 530.101934 783.529004L530.101934 783.529004Z" p-id="2796"></path><path d="M747.325137 928.344473 855.936738 819.732871C865.93416 809.735449 865.934161 793.526427 855.936738 783.529004 845.939316 773.531581 829.730293 773.531582 819.732871 783.529004L711.12127 892.140606C701.123848 902.138027 701.123847 918.34705 711.12127 928.344473 721.118692 938.341896 737.327715 938.341894 747.325137 928.344473L747.325137 928.344473Z" p-id="2797"></path><path d="M638.713535 819.732871 711.12127 747.325137C721.118691 737.327715 721.118692 721.118692 711.12127 711.12127 701.123847 701.123847 684.914824 701.123848 674.917402 711.12127L602.509668 783.529004C592.512246 793.526426 592.512245 809.735448 602.509668 819.732871 612.507091 829.730294 628.716113 829.730293 638.713535 819.732871L638.713535 819.732871Z" p-id="2798"></path><path d="M768.722155 74.258509C778.518218 64.462446 794.760412 64.471507 804.402845 74.11394L949.88606 219.597155C959.598196 229.30929 959.534549 245.484786 949.741491 255.277845L305.142293 899.877043C304.759249 900.260087 301.367833 902.055049 300.651243 902.198367L49.747629 952.379087C62.061161 949.916381 74.064344 962.035213 71.620913 974.252371L121.801633 723.348757C121.978665 722.46361 123.607758 719.372906 124.122957 718.857707L768.722155 74.258509 768.722155 74.258509ZM732.518288 38.054642 87.91909 682.65384C80.175242 690.397688 73.733734 702.618462 71.595903 713.307611L21.415182 964.211225C16.718604 987.694115 36.149866 1007.312602 59.788775 1002.584818L310.69239 952.404098C321.241533 950.294269 333.756602 943.670468 341.34616 936.08091L985.945358 291.481712C1015.669761 261.757309 1015.860961 213.164321 986.089928 183.393288L840.606712 37.910072C810.978473 8.281833 762.318243 8.254686 732.518288 38.054642L732.518288 38.054642Z" p-id="2799"></path><path d="M678.023183 128.753614 895.246386 345.976817 913.34832 364.07875 949.552187 327.874883 931.450254 309.77295 714.22705 92.549746 696.125117 74.447813 659.92125 110.65168 678.023183 128.753614 678.023183 128.753614Z" p-id="2800"></path><path d="M102.381695 733.358196 229.09523 715.256262 200.132136 686.293168 182.030203 813.006704 177.203022 846.796978 210.993296 841.969797 337.706832 823.867864 308.743738 794.90477 290.641804 921.618305 341.327218 928.859079 359.429152 802.145543 364.256333 768.355269 330.466058 773.18245 203.752523 791.284383 232.715617 820.247477 250.81755 693.533942 255.644731 659.743667 221.854457 664.570848 95.140921 682.672782 102.381695 733.358196 102.381695 733.358196Z" p-id="2801"></path><path d="M732.328984 146.855547 225.474843 653.709688 207.37291 671.811622 243.576777 708.015489 261.67871 689.913555 768.532851 183.059414 786.634785 164.957481 750.430918 128.753614 732.328984 146.855547 732.328984 146.855547Z" p-id="2802"></path><path d="M840.940586 255.467149 334.086445 762.32129 315.984511 780.423223 352.188378 816.62709 370.290312 798.525157 877.144453 291.671016 895.246386 273.569082 859.042519 237.365215 840.940586 255.467149 840.940586 255.467149Z" p-id="2803"></path></svg>