<?xml version="1.0" standalone="no"?><!DOCTYPE svg PUBLIC "-//W3C//DTD SVG 1.1//EN" "http://www.w3.org/Graphics/SVG/1.1/DTD/svg11.dtd"><svg t="1494427142018" class="icon" style="" viewBox="0 0 1030 1024" version="1.1" xmlns="http://www.w3.org/2000/svg" p-id="12277" xmlns:xlink="http://www.w3.org/1999/xlink" width="201.171875" height="200"><defs><style type="text/css"></style></defs><path d="M-4.0e-06 0-4.0e-06 0-4.0e-06 0zM790.036538 519.760883c0 149.268829-121.039316 270.275659-270.275659 270.275659-149.268829 0-270.275659-121.006831-270.275659-270.275659 0-17.769325 1.754193-35.14883 5.100154-51.976088L72.76652 467.784794l0 359.252225c0 77.119521 62.468761 139.718222 139.718222 139.718222l614.552274 0c77.119521 0 139.718222-62.533731 139.718222-139.718222L966.755238 467.784794l-181.753884 0C788.282345 484.612053 790.036538 501.991557 790.036538 519.760883L790.036538 519.760883zM827.037016 72.766523 212.484742 72.766523c-77.184491 0-139.718222 62.566216-139.718222 139.718222l0 151.347872 226.290894 0c48.922493-69.128197 129.517915-114.347394 220.703465-114.347394s171.780972 45.219197 220.703465 114.347394l226.290894 0L966.755238 212.484746C966.755238 135.365225 904.189022 72.766523 827.037016 72.766523zM895.385572 245.327136c0 13.773663-11.239829 24.948522-24.948522 24.948522l-74.780597 0c-13.708693 0-24.948522-11.239829-24.948522-24.948522l0-74.845567c0-13.773663 11.272314-24.948522 24.948522-24.948522l74.780597 0c13.773663 0 24.948522 11.239829 24.948522 24.948522L895.385572 245.327136 895.385572 245.327136zM686.084361 519.760883c0-91.900221-74.488232-166.323483-166.323483-166.323483s-166.323483 74.423261-166.323483 166.323483 74.488232 166.323483 166.323483 166.323483S686.084361 611.661104 686.084361 519.760883L686.084361 519.760883z" p-id="12278"></path></svg>